<?xml version="1.0" encoding="UTF-8" standalone="no"?>
<svg width="100%" height="100%" viewBox="0 0 522 613" version="1.1"
     xmlns="http://www.w3.org/2000/svg"
     xmlns:xlink="http://www.w3.org/1999/xlink"
     xml:space="preserve"
     style="fill-rule:evenodd;clip-rule:evenodd;stroke-linejoin:round;stroke-miterlimit:2;">
    <!-- AGROFACIL — Isotipo (símbolo sin texto) -->
    <g transform="matrix(1,0,0,1,-3980.486667,-1274.443333)">
        <g transform="matrix(8.333333,0,0,8.333333,0,0)">
            <g transform="matrix(1,0,0,1,477.6589,191.8638)">
                <path d="M0,-10.809L0,0.559C7.629,-3.501 15.08,-6.424 21.994,-8.533C14.107,-10.809 6.846,-11.368 0,-10.809" style="fill:rgb(215,223,34);fill-rule:nonzero;"/>
            </g>
            <g transform="matrix(1,0,0,1,540.2722,179.9104)">
                <path d="M0,16.956L0,1.426C-20.725,0 -40.607,4.097 -54.59,11.647C-26.678,8.531 -5.209,14.865 0,16.956" style="fill:rgb(161,205,58);fill-rule:nonzero;"/>
            </g>
            <g transform="matrix(1,0,0,1,478.8738,202.4195)">
                <path d="M0,-8.559C-0.401,-8.508 -0.823,-8.456 -1.215,-8.395L-1.215,-2.676C13.772,-2.386 25.016,0.885 30.079,2.512C32.21,1.548 34.499,0.601 36.977,-0.306C38.423,-0.849 39.887,-1.354 41.381,-1.813C44.666,-2.861 48.232,-3.828 52.076,-4.682C36.797,-9.089 18.886,-11.071 0,-8.559" style="fill:rgb(0,177,123);fill-rule:nonzero;"/>
            </g>
            <g transform="matrix(1,0,0,1,477.6589,216.0257)">
                <path d="M0,-14.506L0,-10.929C0,-8.096 1.433,-5.661 3.885,-4.239L11.228,0C14.107,-2.543 20.711,-5.914 27.338,-9.364C11.013,-14.275 0.7,-14.464 0,-14.506" style="fill:rgb(9,144,119);fill-rule:nonzero;"/>
            </g>
            <g transform="matrix(1,0,0,1,505.1228,200.1827)">
                <path d="M0,25.213C2.455,26.635 5.268,26.635 7.721,25.213L31.308,11.604C33.76,10.182 35.149,7.747 35.149,4.914L35.149,-1.422C30.825,-0.938 9.6,2.146 -13.356,17.67L0,25.213Z" style="fill:rgb(8,128,131);fill-rule:nonzero;"/>
            </g>
            <g transform="matrix(1,0,0,1,536.3044,166.6202)">
                <path d="M0,0.981L-23.571,-12.628C-26.023,-14.04 -28.839,-14.04 -31.289,-12.628L-54.873,0.981C-57.326,2.408 -58.646,4.832 -58.646,7.67L-58.646,11.532C-49.967,11.467 -43.578,12.253 -33.19,15.021C-11.763,9.166 3.968,11.123 3.968,11.123L3.968,7.67C3.968,4.832 2.466,2.408 0,0.981" style="fill:rgb(209,211,212);fill-rule:nonzero;"/>
            </g>
        </g>
    </g>
</svg>