<?xml encoding="UTF-8" standalone="no"?>


<svg
   width="200px"
   height="200px"
   viewBox="0 0 104.79501 111"
   id="svg5"
   xmlns="http://www.w3.org/2000/svg"><g
     id="layer1"
     transform="translate(-56.777135,-43.283854)"><path
       style="fill:#00c896;fill-opacity:1;stroke:none;stroke-width:0.264583"
       d="m 156.89699,169.20202 c -1.79467,-3.84837 -6.79133,-7.32049 -9.78959,-10.31875 l -22.22501,-22.225 c -2.52756,-2.52757 -5.14905,-4.94348 -7.69276,-7.45226 -1.09987,-1.08479 -2.15476,-2.74743 -3.68458,-3.24643 -2.05238,-0.6694 -4.99322,-0.14923 -7.14349,-0.14923 H 91.01574 c -3.11018,0 -6.71169,0.52626 -9.26016,-1.64385 -2.74849,-2.34051 -2.89401,-5.54435 -2.91042,-8.93948 -0.0286,-5.92323 -2.6e-4,-11.80571 -2.6e-4,-17.727078 v -19.31459 c 0,-3.13848 -0.46196,-6.58945 1.52506,-9.25936 2.99164,-4.0198 8.09943,-3.17605 12.49786,-3.17605 h 29.63332 c 3.75444,0 9.33927,-1.0361 12.7,0.89085 4.49818,2.57889 3.96875,7.89596 3.96875,12.33831 v 30.956248 c 0,4.0648 1.02659,9.57236 -1.68804,12.96432 -4.76435,5.95339 -8.63838,0.70168 -12.34519,-3.17473 -0.76306,-0.79772 -2.218,-2.85565 -3.42927,-2.85565 -1.35599,0 -3.08557,2.50163 -3.96875,3.38481 -0.81094,0.81095 -2.21482,1.79414 -2.59926,2.91042 -0.41884,1.21629 1.338,2.44263 2.0701,3.175 l 7.9375,7.9375 25.40001,25.4 6.61458,6.61458 c 1.18957,1.18957 2.26007,2.56567 3.96875,2.91042 0,-3.7301 1.09273,-9.45753 -0.15875,-12.96459 -0.62045,-1.7391 -2.54212,-3.23003 -3.81,-4.49791 l -8.73125,-8.73125 c 6.4262,-3.28057 10.67911,-11.16806 12.05203,-17.99167 1.45654,-7.239 0.64797,-15.13549 0.64797,-22.48958 V 81.889522 c 0,-11.15457 -0.22172,-21.33679 -8.51165,-29.87436 -8.05313,-8.29337 -18.59916,-8.49022 -29.32378,-8.49022 h -22.75415 c -6.799,0 -14.23723,-0.84984 -20.90209,0.64162 -2.84983,0.63764 -5.69092,1.73646 -8.20208,3.22209 -7.4684,4.41907 -12.78176,11.84619 -14.17162,20.47795 -0.79322,4.92654 -0.38047,10.10312 -0.38047,15.08125 v 22.224998 c 0,10.81538 -1.13559,22.31761 5.79385,31.48542 10.9175,14.44387 29.86961,11.37708 45.7999,11.37708 3.69305,0 9.50515,-1.11575 12.96458,0.15955 1.9939,0.73527 3.81476,3.39063 5.29167,4.86753 l 10.84791,10.84792 c 1.56528,1.56528 3.29671,4.0222 5.29167,5.01968 1.17184,0.58605 2.95699,0.27199 4.23334,0.27199 h 9.78959 m -17.46251,-34.925 c 4.11242,-2.52598 7.638,-6.06716 8.95404,-10.84792 1.36048,-4.94321 0.57097,-10.78097 0.57097,-15.875 V 80.037442 c 0,-7.14878 0.25558,-13.74643 -5.05064,-19.31061 -4.58603,-4.80907 -10.46295,-5.03105 -16.64521,-5.03105 h -34.6604 c -7.29298,0 -14.37376,-0.0553 -19.49292,6.08541 -4.22698,5.07021 -4.055,10.72038 -4.055,16.93333 v 17.4625 17.197918 c 0,4.37673 -0.21061,8.62594 1.66925,12.7 5.18239,11.22971 17.4416,9.78958 27.6995,9.78958 3.48615,0 11.50593,-1.56554 13.22916,2.11667 H 92.33865 c -7.12497,0 -13.58265,0.12964 -19.31353,-4.84188 -5.36575,-4.65481 -6.08647,-11.31041 -6.08647,-17.91229 V 80.566602 c 0,-8.67648 -0.34343,-16.49358 6.87916,-22.67478 5.76369,-4.93263 13.03841,-4.31271 20.10834,-4.31271 h 29.63333 c 10.25313,0 20.08584,-0.0992 25.536,10.31875 3.04192,5.81448 2.24526,13.22202 2.24526,19.57916 v 24.341668 c 0,4.72122 0.37756,9.61495 -0.38047,14.2875 -0.7038,4.33731 -2.89508,8.47777 -6.23809,11.33871 -1.64571,1.40838 -3.83805,3.2512 -5.2877,0.83212 m -68.52708,67.99791 -3.175,-3.175 c 2.35347,-3.39804 1.5875,-7.59539 1.5875,-11.64166 0,-1.33774 0.34793,-3.27263 -0.27199,-4.49686 -1.31842,-2.60456 -7.72107,-3.10383 -10.0465,-1.65682 -3.26787,2.03358 -1.85234,9.13421 -1.85234,12.50368 0,1.49013 -0.23945,3.03106 0.8329,4.22169 1.78779,1.98437 3.81503,0.85936 6.04626,1.41869 1.45574,0.36486 2.14762,1.90818 3.43959,2.55429 0.98874,0.49451 2.36484,0.27199 3.43958,0.27199 m 28.575,-3.175 h 2.91041 v -18.25625 l -2.903,0.42413 -0.0526,5.13212 0.0452,12.7 m 5.55624,-18.25625 v 2.64584 h 2.91042 v -2.64584 h -2.91042 m 31.75,0.27173 c -3.14933,1.56025 -2.38125,5.00936 -2.38125,7.93036 0,2.23996 -0.61859,5.56313 0.15955,7.67291 1.19856,3.24935 7.48506,3.48853 10.15895,2.11032 2.67203,-1.37716 1.85235,-5.18134 1.85235,-7.66657 0,-2.31193 0.64399,-5.7613 -0.15955,-7.9375 -1.0496,-2.84189 -7.20884,-3.30914 -9.63005,-2.10952 m 21.16668,10.57619 v 4.7625 h -6.08542 v -2.38125 h -2.91041 c 0.003,4.76488 2.86623,5.02708 6.87916,5.02708 1.83436,0 3.71025,0.14182 4.86754,-1.59808 1.7018,-2.55905 0.27729,-8.16928 -3.01545,-8.68151 -1.77721,-0.27649 -3.75788,-0.0392 -5.55625,-0.0392 v -5.02708 c 3.00566,0 6.0825,-0.90435 6.08541,2.91042 h 2.64584 c 0,-1.23137 0.34184,-3.03504 -0.42413,-4.08094 -1.94416,-2.65403 -9.19427,-2.79955 -10.94555,0.22463 -1.40758,2.43073 -0.47784,8.255 2.63843,8.82306 1.84123,0.3355 3.95075,0.0603 5.82083,0.0603 m -46.03751,-9.26042 v 3.175 c -2.71806,0.0659 -2.73235,2.87814 0,2.91042 0,3.02842 -1.25942,9.08076 2.38125,10.42379 1.15755,0.42704 2.74876,0.15954 3.96875,0.15954 v -2.64583 h -3.43958 v -7.9375 h 3.43958 c -2.6e-4,-2.81993 -0.78211,-2.91042 -3.43958,-2.91042 v -3.175 h -2.91042 m -45.50833,1.32292 v 12.43542 l -3.96875,-2.64584 v 2.91042 l -2.10926,-0.42413 -0.27199,-3.28004 v -8.99583 h 6.35 m 77.25833,0 v 9.26042 l -0.42413,3.16759 -5.66129,0.27199 -0.26458,-12.7 h 6.35 m -63.23541,12.7 h -5.55625 v -10.58326 h -2.91042 c 0,3.18955 -1.42901,10.86326 1.58882,12.80504 2.16483,1.39276 7.25276,0.42412 9.78826,0.42412 v -9.78958 c 0,-0.87577 0.35772,-2.8149 -0.42412,-3.43218 -0.98293,-0.77602 -2.36591,-0.0659 -2.47068,1.06257 -0.28946,3.11547 -0.0156,6.38334 -0.0156,9.51336 m 5.29167,-10.84792 v 2.91042 h 8.20208 v 2.38125 c -1.90341,0 -4.94585,-0.57732 -6.61432,0.4609 -2.3024,1.43272 -2.87946,6.11902 -0.12885,7.51417 2.29024,1.16152 7.09216,0.22701 9.65359,0.22701 0,-3.33983 1.37874,-10.99026 -1.85341,-13.06962 -2.07221,-1.33324 -6.83683,-0.42413 -9.25909,-0.42413 m 37.57082,16.13959 v 2.64583 c 1.91638,0 5.21653,0.63262 6.87891,-0.42413 1.98173,-1.25968 1.85234,-3.06202 1.85234,-5.13212 -2.6e-4,-4.31006 -0.26458,-8.63653 -0.26458,-12.96458 h -2.91042 v 10.58333 h -5.29167 v -10.84792 c -0.74586,0 -2.11058,-0.24209 -2.63843,0.42413 -0.51329,0.64796 -0.27199,1.98094 -0.27199,2.75087 0,2.33416 -0.89588,7.07523 0.60934,8.97096 1.88886,2.37861 4.44182,0.49478 6.75984,1.50734 0.99615,0.43524 0.99615,1.8915 0,2.32674 -1.26736,0.55351 -3.35519,0.15955 -4.72335,0.15955 m -18.25625,-15.875 v 13.22916 h 2.91042 v -13.22916 h -2.91042 m -11.11249,7.9375 v 2.64583 c -1.37107,0 -3.69967,0.45217 -4.94294,-0.15954 -0.72655,-0.35772 -0.81704,-1.71689 -0.18918,-2.2143 1.01838,-0.80698 3.87588,-0.27199 5.13212,-0.27199 z"
       id="path179" /></g></svg>
